/* XPM */
static char *fa29536c5e264b29e2f3f8472caa4055XtKkpQgJFbQVlZ95[] = {
/* columns rows colors chars-per-pixel */
"32 32 134 2 ",
"   c None",
".  c #3F3F3F",
"X  c #414141",
"o  c #434343",
"O  c #444444",
"+  c gray28",
"@  c #4B4B4B",
"#  c #4C4C4C",
"$  c gray30",
"%  c #4E4E4E",
"&  c gray31",
"*  c #505050",
"=  c #515151",
"-  c #535353",
";  c gray33",
":  c #555555",
">  c #565656",
",  c gray34",
"<  c #585858",
"1  c gray35",
"2  c #5A5A5A",
"3  c #5B5B5B",
"4  c gray36",
"5  c #5D5D5D",
"6  c gray37",
"7  c #5F5F5F",
"8  c #606060",
"9  c gray38",
"0  c #626262",
"q  c gray39",
"w  c #646464",
"e  c #656565",
"r  c gray40",
"t  c #676767",
"y  c #686868",
"u  c DimGray",
"i  c #6A6A6A",
"p  c gray42",
"a  c #6C6C6C",
"s  c #6D6D6D",
"d  c gray43",
"f  c #6F6F6F",
"g  c gray44",
"h  c #717171",
"j  c #727272",
"k  c gray45",
"l  c #747474",
"z  c gray46",
"x  c #767676",
"c  c #777777",
"v  c gray47",
"b  c #797979",
"n  c gray48",
"m  c #7B7B7B",
"M  c #7C7C7C",
"N  c gray49",
"B  c #7E7E7E",
"V  c gray50",
"C  c #808080",
"Z  c #818181",
"A  c gray51",
"S  c #838383",
"D  c #848484",
"F  c gray52",
"G  c #868686",
"H  c gray53",
"J  c #888888",
"K  c gray54",
"L  c #8B8B8B",
"P  c gray55",
"I  c #8D8D8D",
"U  c #8E8E8E",
"Y  c gray56",
"T  c #909090",
"R  c gray57",
"E  c #929292",
"W  c #939393",
"Q  c gray58",
"!  c #959595",
"~  c gray59",
"^  c #979797",
"/  c gray60",
"(  c #9A9A9A",
")  c #9B9B9B",
"_  c gray61",
"`  c #9D9D9D",
"'  c gray62",
"]  c #9F9F9F",
"[  c #A0A0A0",
"{  c gray63",
"}  c #A2A2A2",
"|  c gray64",
" . c #A4A4A4",
".. c #A5A5A5",
"X. c gray65",
"o. c #A7A7A7",
"O. c gray66",
"+. c #A9A9A9",
"@. c #AAAAAA",
"#. c gray67",
"$. c #ACACAC",
"%. c gray68",
"&. c #AEAEAE",
"*. c #AFAFAF",
"=. c gray69",
"-. c #B1B1B1",
";. c #B2B2B2",
":. c gray70",
">. c gray71",
",. c #B6B6B6",
"<. c #B7B7B7",
"1. c gray72",
"2. c #B9B9B9",
"3. c gray73",
"4. c #BBBBBB",
"5. c #BCBCBC",
"6. c gray74",
"7. c gray",
"8. c gray75",
"9. c #C0C0C0",
"0. c #C1C1C1",
"q. c #C3C3C3",
"w. c gray77",
"e. c #C5C5C5",
"r. c #C6C6C6",
"t. c gray78",
"y. c #C8C8C8",
"u. c gray79",
"i. c #CACACA",
"p. c #CBCBCB",
"a. c gray80",
"s. c #CDCDCD",
"d. c #CECECE",
"f. c gray81",
/* pixels */
"                            < 5 < <                             ",
"                    5 5 < < : : < : : : < <                     ",
"                q q 5 5 5 < 5 5 q 5 q 5 5 < < 5                 ",
"              r q q q 5 q q q q q q q q q r r 5 q               ",
"            u u f q q u u f u f f f f f u r u f r r             ",
"          g g f r g c c c c c c g c c c c c g f g f f           ",
"        n n n g n B Z B B B B B B B B B B B B B n n c g         ",
"      Z Z Z B Z H H H g f n B H J U Z Z B H J J H B Z B B       ",
"      J J H J U W W g - r n Z U / _ W Z n n J W U W J J H       ",
"    W W W ~ W / ~ / u $ r n H U / / W H c q c ~ / ~ ~ W W J     ",
"    _ _ _ _ } } } X.B - q n H U _ _ U H c q : U X.} X._ _ ~     ",
"  O.O.X.&.X.&.:.:.&.~ B n H U ~ } } W H n q $ c &.&.O.&.O.X.O.  ",
"  :.:.:.<.:.3.3.3.3.g Z X.:.:.<.3.3.O.J n q $ < n q 5 } :.:.&.  ",
"  3.<.8.8.3.8.O.X._ 5 $ u Z / 8.q.8.q.~ c q $ @ - o o _ 8.3.3.  ",
"  8.8.r.q.q.X.+ o : $ - r c ~ r.p.r.q.W c q $ 5 _ X.O.q.r.q.8.  ",
"  r.r.p.p.p.<.q f H 5 $ r n W <.8.8.X.H n q $ g <.&.} :.p.r.r.  ",
"  p.p.s.p.s.s.s.s.s.g $ r n H U / _ W H n q $ < < $ . n s.p.r.  ",
"  q.q.p.r.r.r.J n Z : $ r n Z U / / W H c q 5 u u u f W r.q.q.  ",
"  8.3.q.q.3.8.q @ q $ $ r n H U / / U H B B O.3.8.q.q.q.q.3.3.  ",
"  <.<.3.8.<.8./ ~ } q $ r n H ~ } } / ~ W } q.8.8.8.8.8.3.:.:.  ",
"  &.&.&.<.&.:.3.3.3.r $ r c U :.&.X._ J c f &.<.<.<.<.<.O.O.&.  ",
"    } } O.X.} O.O.O.r $ r c U O.O.} ~ Z g < H &.O.O.O.O.} /     ",
"    / ~ _ } ~ _ } _ 5 $ r n J _ } _ ~ H g : r _ } } } / W ~     ",
"      J J ~ W U ~ ~ q - r B J ~ ~ ~ W Z g : 5 ~ ~ ~ ~ J J       ",
"      H Z Z U Z H J n : r n H J U J J H g 5 c U J J Z B H       ",
"        n c n B c B B g g n B Z Z Z B Z B n B Z Z n g n         ",
"          f f f g f g c g c g g g c c g c g c g f u u           ",
"            r q r u r r f u f f u f u f u f u r 5 r             ",
"              r 5 q 5 q 5 r r u u u u r r 5 < < q               ",
"                q q 5 < < < < < < 5 : : : : <                   ",
"                      < < < < : : : : : <                       ",
"                            < < < <                             "
};
