/* XPM */
static char *_96e0f79d5c64ac1a948ef430ad48c9fGl1cjBV9ZXHDjO9m[] = {
/* columns rows colors chars-per-pixel */
"16 16 92 1 ",
"  c None",
". c #555555",
"X c #565656",
"o c gray34",
"O c #585858",
"+ c gray35",
"@ c gray36",
"# c #5D5D5D",
"$ c gray37",
"% c #5F5F5F",
"& c #606060",
"* c gray38",
"= c gray39",
"- c #646464",
"; c #656565",
": c #686868",
"> c gray42",
", c #6C6C6C",
"< c #6D6D6D",
"1 c gray43",
"2 c #6F6F6F",
"3 c gray44",
"4 c #717171",
"5 c #727272",
"6 c #747474",
"7 c #767676",
"8 c gray47",
"9 c #797979",
"0 c #7B7B7B",
"q c #7C7C7C",
"w c gray49",
"e c #7E7E7E",
"r c gray50",
"t c #808080",
"y c #818181",
"u c gray51",
"i c #838383",
"p c #848484",
"a c gray52",
"s c #868686",
"d c gray53",
"f c #898989",
"g c gray54",
"h c #8B8B8B",
"j c gray55",
"k c #8D8D8D",
"l c #8E8E8E",
"z c gray56",
"x c #909090",
"c c gray57",
"v c #929292",
"b c #939393",
"n c gray58",
"m c #959595",
"M c gray59",
"N c #979797",
"B c gray60",
"V c #9B9B9B",
"C c #9D9D9D",
"Z c gray62",
"A c #9F9F9F",
"S c #A0A0A0",
"D c gray63",
"F c #A2A2A2",
"G c gray64",
"H c #A4A4A4",
"J c #A5A5A5",
"K c gray65",
"L c gray66",
"P c #A9A9A9",
"I c #AAAAAA",
"U c #ACACAC",
"Y c #AEAEAE",
"T c #AFAFAF",
"R c gray69",
"E c #B2B2B2",
"W c #B6B6B6",
"Q c #B7B7B7",
"! c gray72",
"~ c #B9B9B9",
"^ c gray73",
"/ c #BBBBBB",
"( c #BCBCBC",
") c gray74",
"_ c gray",
"` c #C1C1C1",
"' c gray77",
"] c #C5C5C5",
"[ c #C6C6C6",
"{ c gray78",
"} c gray79",
"| c #CACACA",
/* pixels */
"      +o+o      ",
"    ;&$&&$&&    ",
"   <><63333<>   ",
"  w0t00wdttdw0  ",
" zzcc;<gBg6dMzg ",
" GHII0wcZz<<GGG ",
"QQ~RZ3gT)G>o&dQQ",
"'''c<+<H`Z>$MH'`",
"'}|Rc$<zZz<;<t'}",
"))`Z0+<zZzgTQ~~~",
" IITI&<ZHc3GRTH ",
" cMBM$<cZg;wZMc ",
"  ttt33tdd3wtw  ",
"   <<<33333<>   ",
"    &$$$&$$+    ",
"      oooo      "
};
