/* XPM */
static char *e558a87b841f4e7993474f658bb600f1qk4odRt0oVx6YG5F[] = {
/* columns rows colors chars-per-pixel */
"64 64 158 2 ",
"   c None",
".  c #373737",
"X  c gray22",
"o  c #393939",
"O  c #3A3A3A",
"+  c gray23",
"@  c #3C3C3C",
"#  c #3E3E3E",
"$  c #3F3F3F",
"%  c gray25",
"&  c #414141",
"*  c gray26",
"=  c #434343",
"-  c #444444",
";  c gray27",
":  c #464646",
">  c gray28",
",  c #484848",
"<  c #494949",
"1  c gray29",
"2  c #4B4B4B",
"3  c #4C4C4C",
"4  c gray30",
"5  c #4E4E4E",
"6  c gray31",
"7  c #505050",
"8  c #515151",
"9  c gray32",
"0  c #535353",
"q  c gray33",
"w  c #555555",
"e  c #565656",
"r  c gray34",
"t  c #585858",
"y  c gray35",
"u  c #5A5A5A",
"i  c #5B5B5B",
"p  c gray36",
"a  c #5D5D5D",
"s  c gray37",
"d  c #5F5F5F",
"f  c #606060",
"g  c gray38",
"h  c #626262",
"j  c gray39",
"k  c #646464",
"l  c #656565",
"z  c gray40",
"x  c #676767",
"c  c #686868",
"v  c DimGray",
"b  c #6A6A6A",
"n  c gray42",
"m  c #6C6C6C",
"M  c #6D6D6D",
"N  c gray43",
"B  c #6F6F6F",
"V  c gray44",
"C  c #717171",
"Z  c #727272",
"A  c gray45",
"S  c #747474",
"D  c gray46",
"F  c #767676",
"G  c #777777",
"H  c gray47",
"J  c #797979",
"K  c gray48",
"L  c #7B7B7B",
"P  c #7C7C7C",
"I  c gray49",
"U  c #7E7E7E",
"Y  c gray50",
"T  c #808080",
"R  c #818181",
"E  c gray51",
"W  c #838383",
"Q  c #848484",
"!  c gray52",
"~  c #868686",
"^  c gray53",
"/  c #888888",
"(  c #898989",
")  c gray54",
"_  c #8B8B8B",
"`  c gray55",
"'  c #8D8D8D",
"]  c #8E8E8E",
"[  c gray56",
"{  c #909090",
"}  c gray57",
"|  c #929292",
" . c #939393",
".. c gray58",
"X. c #959595",
"o. c gray59",
"O. c #979797",
"+. c #989898",
"@. c gray60",
"#. c #9A9A9A",
"$. c #9B9B9B",
"%. c gray61",
"&. c #9D9D9D",
"*. c gray62",
"=. c #9F9F9F",
"-. c #A0A0A0",
";. c gray63",
":. c #A2A2A2",
">. c gray64",
",. c #A4A4A4",
"<. c #A5A5A5",
"1. c gray65",
"2. c #A7A7A7",
"3. c gray66",
"4. c #A9A9A9",
"5. c #AAAAAA",
"6. c gray67",
"7. c #ACACAC",
"8. c gray68",
"9. c #AEAEAE",
"0. c #AFAFAF",
"q. c gray69",
"w. c #B1B1B1",
"e. c #B2B2B2",
"r. c gray70",
"t. c #B4B4B4",
"y. c gray71",
"u. c #B6B6B6",
"i. c #B7B7B7",
"p. c gray72",
"a. c #B9B9B9",
"s. c gray73",
"d. c #BBBBBB",
"f. c #BCBCBC",
"g. c gray74",
"h. c gray",
"j. c gray75",
"k. c #C0C0C0",
"l. c #C1C1C1",
"z. c gray76",
"x. c #C3C3C3",
"c. c gray77",
"v. c #C5C5C5",
"b. c #C6C6C6",
"n. c gray78",
"m. c #C8C8C8",
"M. c gray79",
"N. c #CACACA",
"B. c #CBCBCB",
"V. c gray80",
"C. c #CDCDCD",
"Z. c #CECECE",
"A. c gray81",
"S. c #D0D0D0",
"D. c gray82",
"F. c #D2D2D2",
"G. c LightGray",
"H. c #D5D5D5",
/* pixels */
"                                                                                                                                ",
"                                                  y y d y d y d d y d d d y                                                     ",
"                                            d d d d d y y w w 8 8 w 8 8 8 w y y d d                                             ",
"                                      h h h d y w w w 8 4 4 4 8 w y w 8 4 4 4 4 8 w y d                                         ",
"                                  k k k d y w w y y w y d d h k h h k h k h h y w w 8 w y d                                     ",
"                                k k h y y h k h w d h k h h d h h h h h k c k k k k d y w y y h                                 ",
"                            c c k d y h k c d y h d y y y d y y y d y y y y h h c c c c h d y y h k                             ",
"                          c c h d k c B k y y y d h k c c c c B c c B c c k h d y h c c c c h d y h c                           ",
"                        B c h k c B B h 8 d k B c B B c c B B c B B c B B c B B c h d h k B B c h h h c                         ",
"                      C c k c C C c h d c B C B C C C C C B B C B B B B B C B C B C B c h h B B B c h h c                       ",
"                    D B k C D D k d c D D D D D D D D D D C C D D C C D D D D D D C C D D B k c C D B k k C                     ",
"                  L D c D L D c h B L D L D L D L D D L D L L D L L D L D L D D L L D L D L D B B D L D c c D                   ",
"                U D B L U L c B C U U U L U U L L U U L U L U U L L U L U L U U L L U L L U U U C B L U L c B L                 ",
"              T U C U T U B L C U T U T T T T T T T T T T T U T T U T U T T T T T T T U T T T T T L B U T L B C T               ",
"              T L U ^ T D T D T T ^ T ^ ^ ^ ^ L D D L L L L L U U U U U U L U T ^ ^ ^ ^ ^ ^ T T T ^ U D T ^ U C U               ",
"            ` U U _ ^ L T T U _ _ _ _ _ _ T c d h c D L T T _ ` o.+.+.o.` _ U U L T ^ _ _ ^ _ _ _ _ _ U L ^ _ U D ^             ",
"          ` _ U ` ` U T ` T _ ` ` ` ` ` ` B < 8 d c D U T ^ _  .+.%.;.%.o.` _ T L D L _ ` ` ` ` ` _ ` ` T T ` ` L T  .          ",
"           .^ `  .^ ^  .^ _  . . .o. .o._ 8 < w d B L U T ^ _  .+.%.%.+.o.` ^ ^ U D c C _  . . . . . . . .T `  ._ L `           ",
"        o. .^ o. .T  .o.^ o.o.+.o.o.o.+.T > < w d c D U T ^ _  .+.%.%.%.o.` ^ T U D c h B ` +.o.o.+.o.o.+.o.^ o.o.T _ +.        ",
"        +.` +.%._ o.%.o. .+.+.%.+.%.%.%._ > < w h c L U ^ ^ `  .+.%.;.+.o.` _ T U C c d w D +.+.%.%.%.+.%.%.`  .+.o.^ o.        ",
"      ;.%.o.;.+.` ;.;. .%.;.;.;.;.;.;.;.o.4 < w d c L U T ^ _  .+.%.;.+.o.` _ ^ U D c d 8 y ` ;.;.;.;.;.;.;.;.` %.;._ o.        ",
"      4.+.;.2.o.;.4.2.+.2.2.2.4.2.2.4.2.2.B < 8 h c D U T ^ _  .+.%.;.%.o.` ^ T U D k d w < C 2.2.4.2.2.2.2.4.%.+.4.+. .2.      ",
"      4.%.4.2.+.4.8.2.;.8.8.8.8.4.8.8.8.2.;.c w d c D L T _ `  .+.+.%.%.o.` _ T U D c d 8 < y %.8.8.8.8.8.8.8.8.%.4.4. .4.      ",
"    w.4.2.w.2.4.y.w.;.8.w.w.w.w.w.w.w.w._  .8. .U ^ `  . .o.+.%.;.2.2.;.o.` ^ ^ U D k d w < <  .w.y.w.y.w.w.8.w.2.4.y.%.2.      ",
"    a.4.w.a.2.y.y.a.2.y.y.a.a.a.a.a.a.a.T 8 o.y.a.a.a.a.y.a.y.a.a.y.y.a.w.+._ T U D c d 8 < = U %.o.^ D C c o.a.w.4.a.8.2.a.    ",
"    g.4.a.y.4.g.g.a.8.g.g.g.a.g.g.g.g.g._ $ 8 L +.8.w.y.y.a.g.g.g.g.g.g.g.a. .^ U C c d w < = y d 4 = + . + _ a.g.4.a.y.2.g.    ",
"    g.w.g.y.y.g.g.a.w.x.g.x.x.x.x.x.x.x.` = < 8 h C T ^ ` 2.x.g.x.g.x.g.x.g.%.T U D k d 8 < = 8 d 4 = + + + ^ g.x.w.a.g.8.g.    ",
"    g.y.n.w.g.x.n.g.y.x.n.y.4.;.o.` _ _ c = < w h c D U T %.x.x.x.x.x.x.x.n.2.T U D c d w < = 8 y 4 $ + + + U g.x.a.y.n.w.g.    ",
"  n.a.g.n.w.n.n.n.a.g.n.n.^ = $ + > 4 d w = < w d c D U T ;.n.n.n.n.n.n.n.n.;.T U D k d w < = d U T ^ _ o.%.y.n.n.x.y.n.a.x.    ",
"  M.g.x.n.a.M.M.M.g.x.n.A.` . . + = 8 d w = < w d B L U T 2.M.M.n.M.M.M.M.x.o.T U D c d 8 < $ T n.M.M.M.M.M.M.M.n.M.a.n.g.x.    ",
"  A.g.n.n.g.M.M.A.g.n.A.A.+.+ + + = 8 k d $ < w d c L U T 2.A.A.M.A.A.M.M.4._ ^ U D k d w < >  .A.A.A.A.A.A.M.M.M.A.g.M.x.n.    ",
"  A.x.M.M.x.S.A.A.n.M.A.A.w.C U ^ o.4.a._ $ < w d c D U T +.8.8.w.y.y.w.%.` _ T U D c d 8 < 4 %.y.4.%. .T L U a.A.A.x.A.n.n.    ",
"  S.n.M.M.n.S.S.S.M.M.A.S.S.S.S.H.H.H.H. .= < w h c D U T ^ ` ` o.%.%.+.o.` _ T U C c d 8 < 4 d y 8 4 > $ + < 8.S.S.n.A.M.M.    ",
"  A.n.M.M.n.S.A.A.n.M.A.S.S.S.S.S.S.S.S. .$ 4 w d B D U T _ `  .+.%.;.%.o.` ^ ^ U D c d 8 4 w w 8 4 < > = $ > 2.A.A.x.A.x.n.    ",
"  A.x.n.M.x.M.A.A.x.x.A.A.M.a.4.;.%.+.o.B = < w d c L U T _ _  .+.%.;.+.o.` ^ T U D k d w 8 d w 8 4 > > = = > %.M.M.x.M.g.x.    ",
"  M.x.x.n.g.M.n.n.x.g.M.M.n.c = 4 8 y k w $ < w d B D U T ^ _  .o.%.;.+.o.` ^ ^ U D c d y c C B C D U ^ ` +.;.a.M.M.a.n.a.x.    ",
"    g.g.n.y.n.n.n.x.y.n.n.n.B $ < 8 d k y = < 8 d c L U T _ _  .+.%.;.+.o.` _ T U D c k  .y.a.g.x.n.n.n.n.n.n.n.n.n.y.n.w.x.    ",
"    x.y.x.w.x.x.x.x.8.x.x.x.L $ < 8 y k w = < w d c D U T ^ `  .+.%.;.%. .` ^ ^ U D U %.g.x.n.n.x.x.x.n.x.x.x.x.x.g.w.x.8.x.    ",
"    g.8.x.w.a.x.g.x.8.g.x.x. .k D ^ ` %.D = < w d B L U T ^ _  .o.%.%.+.o.` _ _  .%.w.x.g.x.x.g.g.g.x.g.x.x.g.x.x.y.y.a.4.x.    ",
"    g.8.a.w.y.g.g.g.w.w.g.g.a.a.a.g.g.x._ = < 8 d c D U ^ ` +.%.%.2.2.;.;.;.2.4.2.` U w.g.g.g.g.g.g.g.g.a.g.g.g.g.8.y.8.4.g.    ",
"    g.8.8.y.4.a.a.a.w.2.a.a.a.a.a.a.a.g.^ $ < w d c D U T +.y.a.a.8.2.2.2.%. .^ L c d ` a.a.y.a.a.a.a.a.y.a.a.a.y.2.y.;.w.      ",
"      8.;.w.;.w.y.w.w.;.w.w.y.w.w.y.w.y.T = < 8 d B L U T +.y.w.w.w.%.;.%.` ^ U D c d h 2.y.y.w.w.y.w.w.y.y.w.w.8.;.8.+.w.      ",
"      8.%.4.;.2.8.8.8.%.;.8.8.8.8.8.8.w.U = 4 w d c D U T o.8.8.8.8.4.;.%. .^ U D B d 4 U 8.8.8.8.8.8.8.8.8.8.8.%.;.%.+.w.      ",
"      4.;.%.;.o.4.4.4.2.o.2.4.4.4.4.4.4.L = < 8 d B D U ^  .4.2.4.4.2.;.%.` ^ U L c d 4 y %.4.2.4.4.2.4.2.4.4.2.o.2. .;.        ",
"        ;. .%.o.%.2.;.2. .+.2.;.;.2.;.2.L $ < w d c D U T  .;.2.;.2.2.%.%. .^ U D B d 4 > T ;.2.;.;.2.;.;.2.;.o.o.o._ 2.        ",
"        %.o.o.o.` %.%.%.+._ %.;.%.%.%.;.D = 4 8 d B L U T ` %.%.%.%.%.%.o. .^ U L c d 8 > C ;.%.%.;.%.%.;.%.%._ +.^  .          ",
"          o.^ o._ ` +.o.+._ ` +.+.+.+.+.D = < w d c D U ^ _ o.+.+.o.+.+.o. .^ U D c d 8 = c %.+.+.o.+.+.+.+.` ` ` T +.          ",
"           ._ ^  .T  .o.o.` U  . .o. .o.T > < w h c L U T _  .o.o. . . . .` ^ U L c d 4 > C o. .o. . .o. . .T ` U `             ",
"            ` U _ T U ` ` ` ^ U ` ` ` ` _ w < w d B D U U ^ ` ` ` ` ` ` ` ` ^ U D B d 4 8 ^ ` ` ` ` ` ` ` U ^ U U `             ",
"              ^ L ^ U T _ _ ^ L U _ _ _ _ D w w d c D L U _ _ ^ _ _ _ _ _ ^ ^ U L c d h U _ _ _ _ ^ _ _ L U U C _               ",
"              ^ L D T C U T T T C U ^ T ^ T D k k B C L U T ^ T T T T T T ^ T ^ U L L U T T T ^ ^ T T L D U c U                 ",
"                U C C U B L U U L B D U L U U L L D L U U L U L U U U U L U U U U U U U U U U U L U D B L c D U                 ",
"                  D B B C c C L D C c D L D D L D D D D L D D L L D D L D L D D D D L D D L D D D C c D k B L                   ",
"                    C k c B k c C C B k c C C C C C C C C C C B C C C C C C C C C C C C C C C C c k c d c C                     ",
"                      B k h c k k B B c h k B c B B c B B c B B B B B c B c B B c B B B B B c h k k y k B                       ",
"                        B k h c k d k B c h h k c B B c c B c B c c B c B c c B c B c c c h d k y y k B                         ",
"                          c k h d k d d h c h d h k c c c c c c c c c c c c c c c c c h d d y 8 y c c                           ",
"                            c k d d d h d y h k d y d k c c c k c c c k c c c c k d y y y 4 8 h c                               ",
"                                k k y y d d y y y y y w y d d h k k k k h d d w 8 8 8 4 8 y k k                                 ",
"                                    h d y w y y d y y w 8 4 4 < 4 8 w 8 < < 4 4 8 8 w y h h                                     ",
"                                        h d y w w w w y y y y y y y y w w 8 w w w d d h                                         ",
"                                            d d y y y w 8 8 8 w w 8 8 8 y y d y d                                               ",
"                                                    d y d y y y y d y d d y                                                     ",
"                                                                                                                                "
};
